<?xml version="1.0" standalone="no"?>
<!DOCTYPE svg PUBLIC "-//W3C//DTD SVG 20010904//EN"
 "http://www.w3.org/TR/2001/REC-SVG-20010904/DTD/svg10.dtd">
<svg version="1.0" xmlns="http://www.w3.org/2000/svg"
 width="512.000000pt" height="512.000000pt" viewBox="0 0 512.000000 512.000000"
 preserveAspectRatio="xMidYMid meet">

<g transform="translate(0.000000,512.000000) scale(0.100000,-0.100000)"
fill="#000000" stroke="none">
<path d="M2277 4975 c-756 -92 -1417 -523 -1811 -1181 -122 -204 -238 -501
-285 -731 -67 -326 -67 -679 0 -1006 27 -131 114 -394 173 -520 241 -517 687
-960 1197 -1189 564 -252 1185 -287 1759 -98 381 125 681 310 966 594 214 214
382 455 496 707 520 1159 87 2488 -1019 3127 -179 104 -482 219 -690 261 -243
50 -553 64 -786 36z m643 -290 c52 -9 122 -23 155 -31 93 -23 305 -96 305
-105 0 -11 -160 -402 -168 -411 -4 -4 -53 8 -108 27 -141 47 -288 76 -426 82
l-118 6 0 231 0 231 132 -7 c73 -3 176 -14 228 -23z m-1097 -347 c48 -116 86
-212 84 -212 -1 -1 -42 -21 -92 -44 -117 -57 -291 -172 -384 -256 l-74 -67
-161 158 c-88 87 -161 161 -161 164 0 12 148 140 240 209 115 85 224 151 350
211 55 27 103 48 106 49 3 0 44 -95 92 -212z m2338 -335 c82 -89 164 -198 231
-305 52 -84 163 -306 157 -313 -6 -5 -422 -175 -423 -172 -1 1 -23 47 -49 102
-61 126 -156 267 -247 369 l-71 80 158 158 c87 87 163 157 168 156 6 -2 40
-35 76 -75z m-1301 -52 c492 -115 882 -461 1043 -926 61 -176 72 -247 72 -465
0 -152 -4 -213 -19 -279 -125 -573 -544 -992 -1117 -1117 -120 -27 -438 -27
-559 0 -566 123 -993 550 -1116 1116 -27 121 -27 439 0 560 129 592 598 1037
1191 1129 101 16 407 5 505 -18z m-2083 -652 c109 -44 201 -84 205 -87 4 -4
-8 -53 -27 -108 -47 -141 -76 -288 -82 -426 l-6 -118 -231 0 -231 0 3 87 c3
112 18 232 43 358 22 111 107 375 120 375 4 0 97 -36 206 -81z m3943 -788 c0
-117 -30 -333 -65 -474 -19 -76 -82 -267 -94 -286 -7 -11 -46 2 -197 64 -104
42 -199 81 -210 85 l-22 9 30 83 c45 125 77 277 90 431 l12 137 228 0 228 0 0
-49z m-3679 -703 c65 -132 159 -272 249 -372 l71 -80 -158 -158 c-87 -87 -162
-158 -168 -158 -27 0 -232 257 -316 397 -65 108 -155 296 -143 301 5 2 99 41
209 87 110 46 201 84 202 84 2 1 26 -45 54 -101z m2884 -608 l159 -160 -39
-41 c-57 -58 -206 -177 -305 -244 -82 -55 -346 -192 -354 -184 -6 6 -176 422
-173 423 1 1 43 21 92 44 119 58 293 175 380 256 39 36 72 65 75 66 3 0 77
-72 165 -160z m-1892 -251 c130 -43 277 -70 410 -76 l117 -6 0 -231 0 -231
-87 3 c-113 3 -233 18 -358 44 -111 22 -375 106 -375 119 0 8 157 396 167 412
3 5 12 5 22 2 9 -4 56 -20 104 -36z"/>
</g>
</svg>
